<svg fill="none" height="25" viewBox="0 0 154 25" width="154" xmlns="http://www.w3.org/2000/svg" xmlns:xlink="http://www.w3.org/1999/xlink"><linearGradient id="a"><stop offset=".16" stop-color="#a1e924"/><stop offset="1" stop-color="#00c34e"/></linearGradient><linearGradient id="b" gradientUnits="userSpaceOnUse" x1="-3.56662" x2="20.7191" xlink:href="#a" y1="6.36251" y2="31.5757"/><linearGradient id="c" gradientUnits="userSpaceOnUse" x1="2.52035" x2="26.8061" xlink:href="#a" y1=".499305" y2="25.7125"/><linearGradient id="d" gradientUnits="userSpaceOnUse" x1="19.8276" x2="38.3157" y1="19.3446" y2="1.55123"><stop offset="0" stop-color="#00c34e"/><stop offset=".84" stop-color="#a1e924"/></linearGradient><linearGradient id="e" gradientUnits="userSpaceOnUse" x1="20.8837" x2="40.4086" y1="26.7788" y2="-2.49623"><stop offset="0"/><stop offset=".607524" stop-color="#fff"/></linearGradient><g fill="#fff"><path d="m63.2982 9.50562c-1.5159 0-2.8516.93428-3.4029 2.37908l-2.9152 7.6263-1.1874-3.27 2.6185-6.70279h-1.3251c-1.5584 0-2.9471 1.01029-3.4559 2.52039l-.2969.8799-.2862-.8582c-.5088-1.5209-1.8976-2.53123-3.4559-2.53123h-1.3145l2.6502 6.70283-1.2085 3.2808-2.9259-7.6371c-.5512-1.4449-1.8869-2.37912-3.4029-2.37912h-1.9082l6.2228 15.31772h3.5831l2.0566-5.4318 2.0778 5.4318h3.5831l6.244-15.31772h-1.9506z"/><path d="m80.0904 18.0551h-10.2087c.053 1.1407.3286 1.9555.8481 2.4444.5088.4997 1.1555.7387 1.9505.7387.6679 0 1.2191-.1738 1.6644-.5106.4346-.3368.7314-.7822.8693-1.3254h4.7704c-.1908 1.0647-.6149 2.0098-1.2615 2.8572-.6467.8365-1.4736 1.4991-2.4807 1.9771-1.007.478-2.1201.717-3.3499.717-1.4417 0-2.7244-.315-3.8375-.9342-1.1131-.6193-1.993-1.5209-2.629-2.6942-.6361-1.1733-.9541-2.5421-.9541-4.1064 0-1.5861.3074-2.9549.9329-4.1174.6254-1.1624 1.4947-2.0532 2.629-2.6724 1.1237-.61923 2.4064-.93427 3.8481-.93427 1.463 0 2.7457.30418 3.8482.92337 1.1131.6084 1.9612 1.4775 2.576 2.5856.6043 1.1081.9117 2.3791.9117 3.824 0 .3585-.0424.7713-.1272 1.2275zm-5.2157-4.1824c-.5406-.4998-1.1979-.7388-1.993-.7388-.8268 0-1.5159.2499-2.0565.7605-.5407.4997-.8481 1.2384-.9223 2.2162h5.7457c.0212-.9995-.2332-1.7382-.7739-2.2379z"/><path d="m95.0061 10.4184c.9541.6192 1.7173 1.51 2.2686 2.6724.5512 1.1624.8269 2.5421.8269 4.1173 0 1.5644-.2757 2.9332-.8269 4.1064-.5513 1.1733-1.3145 2.0641-2.2686 2.6942-.9541.6192-2.046.9343-3.2545.9343-1.1237 0-2.0884-.2607-2.9047-.7822-.8057-.5214-1.3993-1.2384-1.7703-2.1401v2.7267h-4.5161v-19.99984h1.3358c1.7597 0 3.1803 1.45572 3.1803 3.25908v4.38886c.371-.9016.954-1.6078 1.7703-2.1401.8057-.52145 1.781-.78218 2.9047-.78218 1.2085.01087 2.2898.31505 3.2545.94518zm-7.0391 4.1064c-.6042.6627-.9116 1.5535-.9116 2.6942 0 1.1189.3074 2.0097.9116 2.6724.6043.6627 1.3888.9995 2.3322.9995.9647 0 1.7492-.3259 2.3323-.9778.5936-.6518.8798-1.5535.8798-2.705s-.2968-2.0532-.8798-2.705c-.5937-.6518-1.3676-.9778-2.3323-.9778-.954.0109-1.7279.3368-2.3322.9995z"/><path d="m106.943 20.2387 2.501-8.278c.414-1.3688 1.644-2.29224 3.043-2.29224h2.459l-5.226 15.07864h-5.597l-5.2265-15.07864h2.4705c1.388 0 2.618.92344 3.031 2.28134z"/><path d="m130.338 18.0551h-10.208c.053 1.1407.328 1.9555.848 2.4444.509.4997 1.155.7387 1.95.7387.668 0 1.219-.1738 1.665-.5106.434-.3368.731-.7822.869-1.3254h4.77c-.19 1.0647-.614 2.0098-1.261 2.8572-.647.8365-1.474 1.4991-2.481 1.9771s-2.12.717-3.35.717c-1.441 0-2.724-.315-3.837-.9342-1.113-.6193-1.993-1.5209-2.629-2.6942s-.954-2.5421-.954-4.1064c0-1.5861.307-2.9549.933-4.1174.625-1.1624 1.494-2.0532 2.629-2.6724 1.123-.61923 2.406-.93427 3.848-.93427 1.463 0 2.745.30418 3.848.92337 1.113.6084 1.961 1.4775 2.576 2.5856.604 1.1081.912 2.3791.912 3.824 0 .3585-.043.7713-.128 1.2275zm-5.215-4.1824c-.541-.4998-1.198-.7388-1.993-.7388-.827 0-1.516.2499-2.057.7605-.54.4997-.848 1.2384-.922 2.2162h5.746c.021-.9995-.234-1.7382-.774-2.2379z"/><path d="m139.498 10.3204c.89-.54319 1.855-.81478 2.883-.81478v4.94298h-1.282c-1.198 0-2.121.2607-2.789.7821-.657.5215-.985 1.4014-.985 2.6508v6.8657h-4.516v-15.07863h1.738c1.527 0 2.767 1.27103 2.767 2.83543.572-.9126 1.304-1.6404 2.184-2.1836z"/><path d="m154 20.7821v3.976h-2.036c-1.728 0-3.063-.4345-4.017-1.3145-.955-.869-1.442-2.3248-1.442-4.3345v-5.5405h-1.983v-3.9h1.983v-3.70449h1.325c1.76 0 3.18 1.45572 3.18 3.25908v.44541h2.958v3.8892h-2.958v5.6273c0 .5975.117 1.0103.361 1.2385.233.239.636.3476 1.198.3476h1.431z"/></g><path d="m15.0746 22.8137c-.2969.2716-.5831.4997-.8587.7061-.2332.163-.4134.3042-.6149.4237-1.8975 1.195-3.2969 1.0538-3.5831 1.0103-1.47352-.0326-2.78804-.7061-3.71033-1.7708-.16961-.1955-.32863-.4128-.47704-.6409-.10601-.1521-.20142-.3042-.28623-.4454-.30742-.5215-.44524-.9017-.44524-.9017l-.47704-1.0646-.0212-.0544-4.197983-9.3427-.021202-.0434-.381635-.80391h3.09548.24382c.32863 0 .64666.05431.95409.15211.24382.076.47704.1738.69966.2824 1.1025.4563 2.00358 1.3037 2.56544 2.3683.0742.1521.14841.3042.21202.4563l2.81989 6.2031.3498.7713c.6997 1.271 1.8976 2.2162 3.3287 2.5529l.2332.0435.5513.076h.0318l-.0106.0109z" fill="url(#b)"/><path d="m21.9863 21.0211c-.1696-.1955-.3286-.4128-.477-.6409-.0636-.0869-.1167-.1738-.1697-.2608l-.3498-.7604-5.1521-11.1026c-.0636-.1521-.1378-.31505-.212-.45628-.5512-1.06463-1.4629-1.91199-2.5654-2.36826-.2226-.1195-.4558-.21727-.6997-.28245-.3074-.09778-.6254-.1521-.9541-.1521h-.2438-3.10606l.37103.81477.02121.04346 6.53022 14.23136.0212.0543.477 1.0646s.1378.3802.4453.9017c.0848.1412.1802.2933.2862.4454.1378.2281.2968.4454.477.6409.9117 1.0538 2.2368 1.7274 3.7104 1.7708.0848.0109.2862.0326.5618.0326.2756.0109.4771-.0109.5619-.0326 1.4735-.0326 2.788-.7061 3.7103-1.7708.1166-.1303.2226-.2715.318-.4128-1.4205-.076-2.682-.7496-3.5619-1.7599z" fill="url(#c)"/><path d="m34.1771 0h-1.3145-.2438c-.3286 0-.6467.054318-.9541.15209-.2438.076046-.477.173818-.6997.282454-1.1025.456271-2.0036 1.303636-2.5654 2.368266-.0742.15209-.1484.30418-.212.45627l-4.9719 10.84192c-.0318.1412-.0636.2824-.0848.4236-.0424.2608-.0636.5106-.0636.7714-.0212 1.1515.3286 2.3139 1.0601 3.2808.0424.076.1484.2498.3286.4671.1697.2281.3075.3694.3711.4237.0954.1086.1908.2172.2968.3259.4134.4128.8799.7496 1.3781.9994l.2969-.6626.0212-.0544 1.3251-2.9223 7.4419-16.295375.0212-.043455.371-.81477z" fill="url(#d)"/><path d="m34.1146 0h-1.3145-.2438c-.3286 0-.6467.054318-.9541.15209-.2438.076046-.477.173818-.6997.282454-1.1025.456271-2.0035 1.303636-2.5654 2.368266-.0742.15209-.1484.30418-.212.45627l-4.9719 10.84192c-.0318.1412-.0636.2824-.0848.4236-.0424.2608-.0636.5106-.0636.7714-.0212 1.1515.3286 2.3139 1.0601 3.2808.0424.076.1484.2498.3286.4671.1697.2281.3075.3694.3711.4237.0954.1086.1908.2172.2968.3259.4134.4128.8799.7496 1.3781.9994l.2969-.6626.0212-.0544 1.3251-2.9223 7.4419-16.295375.0212-.043455.371-.81477z" fill="url(#e)" opacity=".2"/></svg>