<svg height="700pt" preserveAspectRatio="xMidYMid meet" viewBox="0 0 700 700" width="700pt" xmlns="http://www.w3.org/2000/svg"><g transform="matrix(.1 0 0 -.1 0 700)"><path d="m6224 5895c-125-27-304-111-415-195-84-63-172-157-231-246-25-38-140-274-256-524s-264-570-330-710c-461-983-492-1051-503-1116-7-40-9-126-6-217 5-165 24-252 85-387 49-109 169-278 275-387 122-125 296-250 317-226 4 4 60 125 125 268s477 1044 916 2003c440 959 799 1745 799 1748 0 2-161 4-357 3-257 0-375-4-419-14z"/><path d="m1573 4923c3-10 267-585 587-1278s649-1408 732-1590c183-401 186-408 261-520 113-170 293-321 466-391 261-106 642-107 908-5 86 34 204 105 286 174 43 37 157 167 157 179 0 3-27 9-61 12-275 31-530 187-702 429-29 40-243 488-611 1277-311 668-586 1244-610 1280-98 148-238 267-410 349-201 97-189 95-625 99-367 3-383 3-378-15z"/><path d="m0 3995c0-4 27-64 59-133 67-145 876-1936 941-2085 55-126 178-312 266-402 186-191 412-288 698-302 150-7 234 4 369 48 169 55 377 176 537 311l75 63-50 8c-120 19-155 27-237 57-201 73-389 226-496 403-18 30-181 380-363 778-221 483-349 751-384 804-61 91-180 212-273 274-79 53-232 125-326 153-65 19-102 21-443 25-205 3-373 2-373-2z"/></g></svg>